<?xml version="1.0" standalone="no"?>
<!DOCTYPE svg PUBLIC "-//W3C//DTD SVG 20010904//EN"
 "http://www.w3.org/TR/2001/REC-SVG-20010904/DTD/svg10.dtd">
<svg version="1.0" xmlns="http://www.w3.org/2000/svg"
 width="100.000000pt" height="100.000000pt" viewBox="0 0 100.000000 100.000000"
 preserveAspectRatio="xMidYMid meet">
<metadata>
Created by potrace 1.15, written by Peter Selinger 2001-2017
</metadata>
<g transform="translate(0.000000,100.000000) scale(0.100000,-0.100000)"
fill="#000000" stroke="none">
<path d="M133 888 c3 -7 23 -52 44 -100 21 -49 41 -88 44 -88 4 0 9 19 12 43
9 65 50 97 127 97 33 0 60 -4 60 -10 0 -5 -23 -10 -51 -10 -28 0 -59 -5 -71
-11 -23 -12 -48 -66 -48 -104 0 -40 17 -29 29 19 13 55 41 76 98 76 l43 0 0
-294 0 -294 -40 -32 c-22 -17 -40 -36 -40 -41 0 -5 61 -9 139 -9 110 0 141 -3
151 -15 10 -13 -6 -15 -127 -18 l-138 -3 163 -2 c89 -1 162 0 162 3 0 2 -20
27 -45 55 l-45 51 0 299 0 300 30 0 c51 0 109 -31 115 -62 7 -28 25 -39 25
-15 0 7 18 48 40 91 22 43 40 80 40 82 0 2 -162 4 -361 4 -285 0 -360 -3 -356
-12z"/>
</g>
</svg>
